<svg width="146" height="63" viewBox="0 0 146 63" fill="none" xmlns="http://www.w3.org/2000/svg">
    <g opacity="0.9">
        <path d="M40.7842 45.6053V21.4H55.7053V25.6442H45.6584V31.0821H54.5448V35.3263H45.6584V41.361H55.7053V45.6053H40.7842Z"
              fill="#50F1BE" fill-opacity="0.745098"/>
        <path d="M62.8478 45.8042C61.747 45.8042 60.865 45.4196 60.2018 44.6503C59.5386 43.881 59.2071 42.8399 59.2071 41.5268V38.7416C59.2071 37.4418 59.5386 36.4073 60.2018 35.638C60.865 34.8555 61.747 34.4642 62.8478 34.4642C63.7497 34.4642 64.4593 34.7295 64.9765 35.26C65.4938 35.7773 65.7524 36.5067 65.7524 37.4484L65.0561 36.7521H65.7524L65.653 34.0663V31.0821H68.6372V45.6053H65.7524V43.5163H65.0561L65.7524 42.82C65.7524 43.7617 65.4938 44.4978 64.9765 45.0283C64.4593 45.5456 63.7497 45.8042 62.8478 45.8042ZM63.9221 43.2179C64.4659 43.2179 64.8903 43.0654 65.1954 42.7603C65.5004 42.442 65.653 41.9977 65.653 41.4274V38.841C65.653 38.2707 65.5004 37.833 65.1954 37.528C64.8903 37.2097 64.4659 37.0505 63.9221 37.0505C63.3651 37.0505 62.934 37.2097 62.629 37.528C62.3372 37.833 62.1913 38.2707 62.1913 38.841V41.4274C62.1913 41.9977 62.3372 42.442 62.629 42.7603C62.934 43.0654 63.3651 43.2179 63.9221 43.2179ZM75.9109 45.8042C74.4387 45.8042 73.2848 45.4063 72.4492 44.6105C71.6269 43.8147 71.2157 42.7271 71.2157 41.3478V34.6631H74.1999V41.3279C74.1999 41.938 74.3458 42.4088 74.6376 42.7404C74.9294 43.0587 75.3538 43.2179 75.9109 43.2179C76.4547 43.2179 76.8724 43.0587 77.1642 42.7404C77.4693 42.4088 77.6218 41.938 77.6218 41.3279V34.6631H80.606V41.3478C80.606 42.7404 80.1882 43.8346 79.3527 44.6304C78.5171 45.4129 77.3698 45.8042 75.9109 45.8042ZM87.8996 45.8042C86.9314 45.8042 86.0826 45.6251 85.3531 45.267C84.6236 44.8957 84.0599 44.385 83.662 43.7351C83.2642 43.072 83.0652 42.3027 83.0652 41.4274V38.841C83.0652 37.9524 83.2642 37.1831 83.662 36.5333C84.0599 35.8834 84.6236 35.3794 85.3531 35.0213C86.0826 34.6499 86.9314 34.4642 87.8996 34.4642C89.3453 34.4642 90.4992 34.8289 91.3613 35.5584C92.2234 36.2879 92.681 37.2826 92.734 38.5426H89.7498C89.71 38.0784 89.5244 37.7137 89.1928 37.4484C88.8745 37.1831 88.4434 37.0505 87.8996 37.0505C87.3028 37.0505 86.8452 37.203 86.5269 37.5081C86.2086 37.8131 86.0494 38.2575 86.0494 38.841V41.4274C86.0494 41.9977 86.2086 42.442 86.5269 42.7603C86.8452 43.0654 87.3028 43.2179 87.8996 43.2179C88.4434 43.2179 88.8745 43.0919 89.1928 42.8399C89.5244 42.5746 89.71 42.2033 89.7498 41.7258H92.734C92.681 42.9858 92.2234 43.9805 91.3613 44.71C90.4992 45.4395 89.3453 45.8042 87.8996 45.8042ZM98.3565 45.8042C97.2556 45.8042 96.3803 45.5058 95.7304 44.9089C95.0937 44.3121 94.7754 43.503 94.7754 42.4818C94.7754 41.3809 95.1534 40.5387 95.9094 39.9551C96.6787 39.3583 97.7795 39.0599 99.212 39.0599H101.48V38.2442C101.48 37.8198 101.327 37.4816 101.022 37.2296C100.731 36.9776 100.333 36.8516 99.8287 36.8516C99.3645 36.8516 98.9799 36.9577 98.6748 37.1699C98.3697 37.3821 98.1841 37.6739 98.1177 38.0453H95.233C95.3524 36.9444 95.8299 36.0757 96.6654 35.439C97.5143 34.7891 98.6019 34.4642 99.9282 34.4642C101.321 34.4642 102.422 34.809 103.231 35.4987C104.053 36.1751 104.464 37.0903 104.464 38.2442V45.6053H101.579V43.8147H101.102L101.599 43.1184C101.599 43.9407 101.301 44.5973 100.704 45.088C100.12 45.5655 99.338 45.8042 98.3565 45.8042ZM99.4706 43.6158C100.054 43.6158 100.532 43.4633 100.903 43.1582C101.288 42.8399 101.48 42.4287 101.48 41.9247V40.7509H99.2716C98.8207 40.7509 98.456 40.8836 98.1774 41.1488C97.8989 41.4008 97.7596 41.739 97.7596 42.1635C97.7596 42.6144 97.9122 42.9725 98.2172 43.2378C98.5223 43.4898 98.9401 43.6158 99.4706 43.6158ZM112.892 45.6053C111.778 45.6053 110.902 45.2869 110.266 44.6503C109.629 44.0137 109.311 43.1383 109.311 42.0242V37.3489H106.426V34.6631H109.311V31.5795H112.295V34.6631H116.373V37.3489H112.295V42.0242C112.295 42.621 112.593 42.9195 113.19 42.9195H116.174V45.6053H112.892ZM123.647 45.8042C122.679 45.8042 121.83 45.6251 121.101 45.267C120.384 44.8957 119.827 44.385 119.429 43.7351C119.045 43.072 118.852 42.3027 118.852 41.4274V38.841C118.852 37.9657 119.045 37.203 119.429 36.5531C119.827 35.89 120.384 35.3794 121.101 35.0213C121.83 34.6499 122.679 34.4642 123.647 34.4642C124.615 34.4642 125.451 34.6499 126.154 35.0213C126.87 35.3794 127.42 35.89 127.805 36.5531C128.203 37.203 128.402 37.9657 128.402 38.841V40.8305H121.697V41.4274C121.697 42.117 121.863 42.6409 122.195 42.999C122.526 43.3439 123.024 43.5163 123.687 43.5163C124.151 43.5163 124.522 43.4367 124.801 43.2776C125.093 43.1184 125.285 42.8996 125.378 42.621H128.302C128.064 43.576 127.52 44.3453 126.671 44.9288C125.835 45.5124 124.827 45.8042 123.647 45.8042ZM125.557 39.2986V38.8013C125.557 38.1248 125.398 37.6076 125.079 37.2495C124.774 36.8914 124.297 36.7123 123.647 36.7123C122.997 36.7123 122.506 36.898 122.175 37.2694C121.857 37.6407 121.697 38.1646 121.697 38.841V39.1395L125.756 39.0997L125.557 39.2986Z"
              fill="white"/>
        <path d="M22.8007 32.2632L18.5901 17.7943H22.4546L24.6376 27.2753H24.7577L27.2516 17.7943H30.4026L32.8965 27.2965H33.0166L35.2067 17.7943H39.0641L34.8605 32.2632H31.4906L28.8836 23.4886H28.7706L26.1636 32.2632H22.8007Z"
              fill="white"/>
    </g>
</svg>
