<svg width="24" height="64" viewBox="0 0 24 64" fill="none" xmlns="http://www.w3.org/2000/svg">
<g filter="url(#filter0_d_484_1834)">
<mask id="mask0_484_1834" style="mask-type:alpha" maskUnits="userSpaceOnUse" x="0" y="20" width="24" height="24">
<rect y="20" width="24" height="24" fill="#D9D9D9"/>
</mask>
<g mask="url(#mask0_484_1834)">
<path d="M6 34C5.45 34 4.97917 33.8042 4.5875 33.4125C4.19583 33.0208 4 32.55 4 32C4 31.45 4.19583 30.9792 4.5875 30.5875C4.97917 30.1958 5.45 30 6 30C6.55 30 7.02083 30.1958 7.4125 30.5875C7.80417 30.9792 8 31.45 8 32C8 32.55 7.80417 33.0208 7.4125 33.4125C7.02083 33.8042 6.55 34 6 34ZM12 34C11.45 34 10.9792 33.8042 10.5875 33.4125C10.1958 33.0208 10 32.55 10 32C10 31.45 10.1958 30.9792 10.5875 30.5875C10.9792 30.1958 11.45 30 12 30C12.55 30 13.0208 30.1958 13.4125 30.5875C13.8042 30.9792 14 31.45 14 32C14 32.55 13.8042 33.0208 13.4125 33.4125C13.0208 33.8042 12.55 34 12 34ZM18 34C17.45 34 16.9792 33.8042 16.5875 33.4125C16.1958 33.0208 16 32.55 16 32C16 31.45 16.1958 30.9792 16.5875 30.5875C16.9792 30.1958 17.45 30 18 30C18.55 30 19.0208 30.1958 19.4125 30.5875C19.8042 30.9792 20 31.45 20 32C20 32.55 19.8042 33.0208 19.4125 33.4125C19.0208 33.8042 18.55 34 18 34Z" fill="#1C1B1F"/>
</g>
</g>
<defs>
<filter id="filter0_d_484_1834" x="-4" y="0" width="32" height="72" filterUnits="userSpaceOnUse" color-interpolation-filters="sRGB">
<feFlood flood-opacity="0" result="BackgroundImageFix"/>
<feColorMatrix in="SourceAlpha" type="matrix" values="0 0 0 0 0 0 0 0 0 0 0 0 0 0 0 0 0 0 127 0" result="hardAlpha"/>
<feOffset dy="4"/>
<feGaussianBlur stdDeviation="2"/>
<feComposite in2="hardAlpha" operator="out"/>
<feColorMatrix type="matrix" values="0 0 0 0 0 0 0 0 0 0 0 0 0 0 0 0 0 0 0.25 0"/>
<feBlend mode="normal" in2="BackgroundImageFix" result="effect1_dropShadow_484_1834"/>
<feBlend mode="normal" in="SourceGraphic" in2="effect1_dropShadow_484_1834" result="shape"/>
</filter>
</defs>
</svg>
